<svg width="225" height="225" viewBox="0 0 225 225" fill="none" xmlns="http://www.w3.org/2000/svg">
<path d="M75.6409 81.714C75.6409 81.714 75.4375 85.5731 67.959 98.1613C59.2972 112.748 58.4837 129.823 67.3304 144.078C85.9806 174.129 136.597 173.561 155.363 144.096C162.62 132.699 164.7 119.622 162.222 106.336C162.222 106.336 156.218 78.5981 135.714 61.1076C136.038 61.3799 136.833 65.0913 136.985 66.6746C137.452 71.5401 136.995 76.6409 135.363 81.2709C134.166 84.673 132.507 87.618 129.701 89.8892C129.701 89.0952 129.502 87.6734 129.498 87.198C129.364 77.5087 125.61 68.5349 119.495 61.0014C114.152 54.428 106.826 49.9412 99.1119 46.6406C99.3061 47.3053 99.6666 50.0612 99.7174 50.6059C100.115 55.1805 100.189 61.5877 99.588 66.1576C98.9871 70.7276 97.9564 73.2157 96.5559 77.4995C94.4344 83.9944 91.5456 88.809 87.8849 94.5838C87.21 95.6455 85.1948 98.5583 84.1178 100.031C84.1178 100.031 82.2644 88.3243 75.6455 81.714H75.6409Z" fill="black"/>
<path d="M117.188 5.68329L202.662 55.0322C205.563 56.7068 207.35 59.8018 207.35 63.1511V161.849C207.35 165.198 205.563 168.293 202.662 169.968L117.188 219.317C114.287 220.991 110.713 220.991 107.812 219.317L22.3378 169.968C19.4371 168.293 17.6503 165.198 17.6503 161.849V63.1511C17.6503 59.8018 19.4371 56.7068 22.3378 55.0322L107.812 5.68329C110.713 4.00861 114.287 4.00861 117.188 5.68329Z" stroke="black" stroke-width="5.15625"/>
</svg>
