<?xml version="1.0" standalone="no"?>
<!DOCTYPE svg PUBLIC "-//W3C//DTD SVG 20010904//EN"
 "http://www.w3.org/TR/2001/REC-SVG-20010904/DTD/svg10.dtd">
<svg version="1.0" xmlns="http://www.w3.org/2000/svg"
 width="360.000000pt" height="366.000000pt" viewBox="0 0 360.000000 366.000000"
 preserveAspectRatio="xMidYMid meet">
<metadata>
Created by potrace 1.10, written by Peter Selinger 2001-2011
</metadata>
<g transform="translate(0.000000,366.000000) scale(0.100000,-0.100000)"
fill="#e00606" stroke="none">
<path d="M0 1830 l0 -1830 1800 0 1800 0 0 1830 0 1830 -1800 0 -1800 0 0
-1830z m2503 1509 c37 -11 67 -25 67 -30 0 -5 6 -9 14 -9 20 0 86 -101 86
-133 0 -26 2 -27 49 -27 28 0 53 -4 56 -10 3 -5 16 -10 29 -10 26 0 106 -78
106 -104 0 -9 7 -24 15 -32 20 -20 20 -104 0 -130 -8 -10 -15 -28 -15 -40 0
-24 -115 -148 -151 -164 -13 -5 -31 -14 -39 -19 -43 -27 -94 -41 -147 -41
l-58 -1 40 -34 c22 -19 45 -35 52 -35 14 0 183 -167 183 -182 0 -5 14 -27 30
-48 17 -21 30 -45 30 -53 0 -8 7 -20 15 -27 8 -7 15 -22 15 -34 0 -11 7 -30
15 -40 8 -11 15 -36 15 -57 0 -20 7 -50 15 -65 13 -24 15 -98 15 -468 l0 -438
-370 -369 -369 -369 -364 0 c-400 0 -386 -2 -426 64 -21 34 -22 42 -21 523 l1
488 -23 3 c-13 2 -30 10 -38 17 -8 7 -28 15 -45 18 -33 6 -102 30 -153 53 -18
9 -37 26 -42 40 -11 28 -50 33 -70 9 -7 -8 -20 -15 -30 -15 -10 0 -23 -7 -30
-15 -7 -8 -25 -15 -41 -15 -15 0 -40 -5 -56 -11 -33 -13 -150 3 -196 27 -16 8
-40 14 -53 14 -14 0 -27 7 -30 15 -4 8 -15 15 -25 15 -19 0 -76 35 -91 55 -4
6 -8 22 -8 38 0 22 -5 27 -24 27 -13 0 -29 7 -36 15 -7 8 -19 15 -27 15 -8 0
-39 24 -69 52 -47 46 -54 58 -54 91 0 29 7 44 28 62 15 13 36 25 47 25 25 1
62 32 105 90 18 25 48 59 65 75 18 17 35 43 39 58 13 52 44 73 121 80 131 11
263 -20 335 -80 8 -7 32 -27 53 -44 21 -17 39 -30 40 -28 2 2 11 16 20 31 17
27 17 27 153 30 l137 3 -2 187 c-2 127 2 194 10 209 9 17 9 31 0 61 -10 32
-10 44 2 61 8 12 17 34 21 50 3 15 11 27 16 27 6 0 10 8 10 19 0 10 7 24 15
31 8 7 15 19 15 26 0 20 96 158 153 221 27 29 76 69 109 88 55 33 65 35 147
35 74 0 92 -3 111 -20 13 -11 27 -20 32 -20 10 0 97 67 109 83 12 17 111 67
179 90 62 21 105 21 183 -4z"/>
<path d="M2340 3265 c-14 -8 -35 -14 -46 -15 -12 0 -27 -7 -34 -15 -7 -8 -17
-15 -23 -15 -10 0 -73 -48 -134 -104 -18 -16 -33 -35 -33 -43 0 -32 -33 -25
-75 17 -43 42 -44 42 -115 42 -51 -1 -77 -6 -89 -16 -10 -9 -22 -16 -27 -16
-11 0 -114 -96 -114 -106 0 -3 -12 -23 -27 -43 -35 -45 -50 -70 -62 -98 -6
-11 -15 -24 -20 -28 -6 -3 -11 -15 -11 -26 0 -11 -7 -22 -15 -25 -8 -4 -15
-16 -15 -29 0 -12 -7 -28 -15 -35 -8 -7 -15 -19 -15 -26 0 -22 1165 -21 1186
1 9 8 24 15 34 15 23 0 129 103 153 148 36 71 11 150 -64 198 -44 27 -71 30
-88 10 -14 -16 -80 -26 -88 -13 -3 5 -7 39 -9 75 -4 55 -9 71 -31 94 -58 61
-165 86 -223 53z"/>
<path d="M1477 2583 c-4 -3 -7 -106 -7 -228 0 -158 -3 -224 -12 -233 -8 -8
-58 -12 -160 -12 -119 0 -148 -3 -148 -14 0 -7 10 -21 23 -29 12 -9 42 -35 67
-57 25 -23 56 -50 70 -59 57 -37 160 -131 160 -146 0 -18 -44 -55 -67 -55 -11
0 -26 -7 -33 -15 -7 -8 -20 -15 -30 -15 -9 0 -42 -13 -73 -30 -31 -16 -63 -30
-72 -30 -8 0 -24 -8 -35 -17 -18 -16 -18 -18 -3 -35 9 -10 30 -18 49 -18 18 0
39 -6 46 -14 8 -7 27 -15 43 -18 39 -7 92 -26 135 -48 l35 -18 5 -518 5 -519
349 -3 349 -2 343 342 344 343 0 413 c0 488 0 485 -92 676 -46 96 -177 228
-274 275 -38 18 -82 40 -97 47 -16 8 -42 14 -58 14 -16 0 -46 7 -66 15 -29 12
-100 15 -413 15 -207 0 -380 -3 -383 -7z m913 -78 c7 -8 20 -15 30 -15 10 0
23 -7 30 -15 7 -8 20 -15 29 -15 43 -1 250 -209 251 -253 0 -10 7 -20 15 -23
8 -4 15 -16 15 -28 0 -11 7 -30 15 -40 8 -11 15 -32 15 -47 0 -14 7 -46 15
-69 12 -35 15 -110 15 -419 0 -207 -3 -386 -6 -398 l-6 -23 -327 -2 -326 -3
-3 -324 c-2 -245 -5 -327 -15 -333 -21 -13 -601 -10 -615 4 -9 9 -12 122 -12
449 0 241 3 444 6 453 10 27 28 18 52 -25 13 -23 37 -48 53 -57 16 -10 29 -20
29 -24 0 -16 80 -7 112 12 57 33 78 71 78 138 0 58 -2 61 -42 98 -59 52 -78
83 -78 125 0 42 34 85 93 114 40 21 29 24 139 -30 53 -25 240 -27 292 -2 19
10 52 25 71 35 35 16 106 86 132 127 47 76 55 109 55 225 1 109 -1 119 -30
178 -17 34 -37 69 -44 78 -33 41 -78 84 -88 84 -14 0 -13 27 3 33 22 9 34 7
47 -8z m-474 -186 c3 -5 14 -9 25 -9 27 0 99 -70 99 -97 0 -12 5 -25 10 -28 6
-3 10 -21 10 -40 0 -19 -4 -37 -10 -40 -5 -3 -10 -16 -10 -28 0 -26 -52 -87
-73 -87 -8 0 -20 -7 -27 -15 -8 -9 -30 -15 -60 -15 -30 0 -52 6 -60 15 -7 8
-20 15 -29 15 -37 0 -101 97 -101 154 0 62 72 166 115 166 7 0 25 6 39 14 27
14 62 11 72 -5z m-448 -332 c2 -65 0 -78 -14 -84 -10 -3 -22 0 -28 8 -9 12
-114 97 -149 120 -6 4 -7 14 -4 23 6 14 21 16 99 14 l93 -3 3 -78z m-4 -283
c9 -25 7 -127 -4 -144 -8 -12 -13 -13 -30 -2 -11 6 -30 12 -44 12 -13 0 -29 7
-36 15 -7 8 -25 15 -40 15 -15 0 -33 6 -39 14 -10 12 -5 19 26 40 21 14 42 26
48 26 6 0 28 9 50 20 47 24 61 25 69 4z m1289 -608 c7 -17 -517 -531 -541
-531 -15 0 -17 24 -20 250 -1 138 0 260 3 273 l5 22 274 0 c223 0 275 -3 279
-14z"/>
<path d="M1837 2193 c-4 -3 -7 -26 -7 -49 0 -37 3 -44 23 -49 12 -4 35 -1 50
4 22 9 27 17 27 44 0 18 -5 38 -12 45 -13 13 -70 17 -81 5z"/>
<path d="M631 2201 c-11 -7 -9 -10 8 -16 11 -3 21 -12 21 -20 0 -15 -60 -55
-83 -55 -9 0 -33 -21 -54 -47 -62 -77 -154 -163 -174 -163 -32 0 -21 -23 30
-62 45 -35 54 -38 114 -38 36 0 69 5 72 10 8 13 40 13 68 -2 12 -6 29 -14 37
-18 24 -11 24 -56 1 -79 -16 -16 -34 -21 -78 -21 l-57 0 39 -20 c22 -11 47
-20 56 -20 9 0 22 -7 29 -15 8 -9 30 -15 59 -15 25 -1 57 -7 70 -14 21 -12 31
-12 64 0 22 8 50 14 62 14 12 0 28 7 35 15 7 8 19 15 27 15 8 0 42 26 75 58
33 31 67 60 76 65 47 21 77 46 80 64 2 15 -19 45 -72 100 -42 43 -76 83 -76
89 0 15 -100 114 -115 114 -7 0 -18 7 -25 15 -7 8 -19 15 -28 15 -8 0 -23 7
-33 15 -19 18 -204 30 -228 16z m287 -210 c2 -6 15 -11 28 -11 36 0 104 -72
104 -110 0 -41 -51 -86 -104 -92 -67 -8 -130 4 -134 25 -2 12 3 20 15 23 33 9
46 40 29 73 -12 22 -24 29 -57 34 -62 8 -67 21 -22 52 32 22 46 26 88 22 27
-2 51 -10 53 -16z"/>
</g>
</svg>
