<?xml version="1.0" encoding="UTF-8"?><svg id="Layer_1" xmlns="http://www.w3.org/2000/svg" viewBox="0 0 370 290"><defs><style>.cls-1{fill:#000;stroke-width:0px;}</style></defs><path class="cls-1" d="M289.13,94.66l-.27-.33c-9.91-12.18-18.05-22.6-24.6-30.97-15.2-19.44-24.38-31.18-35.14-39.02-13.34-9.71-26.56-11.66-43.57-11.66s-30.23,1.95-43.57,11.66c-10.76,7.83-19.94,19.57-35.14,39.01l-.06.08c-6.53,8.35-14.66,18.75-24.52,30.87l-.27.34L9.99,187.88v89.44l50.01-.2h0s53.09-69.81,53.09-69.81v27.56l1.19.68,70.04,40.28,1.18.68,1.18-.68,70.04-40.28,1.19-.68v-27.75l51.99,66.93v1.55h50.13v-89.7l-1.79-2.31-69.09-88.93ZM185.55,186.12l-62.58-35.99,18.32.36,12.21.67,3.36.19-.96-3.22-10.03-33.59,27.01,22.26,2.96,2.44.85-3.75,8.99-39.75,9.62,38.48.9,3.59,2.88-2.32,26.23-21.11-10.09,33.85-.96,3.23,3.37-.19,12.26-.71,17.82-1.03-62.15,36.59ZM312.25,186.71l-53.18-68.45c-10.06-12.38-18.29-22.9-24.91-31.37-28.14-36-28.52-36-48.6-36s-20.46,0-48.6,36c-6.62,8.47-14.85,18.99-24.91,31.37l-53.18,68.45H13.48l70.39-90.6.25-.31c9.9-12.18,18.06-22.61,24.61-30.99,15.07-19.28,24.17-30.92,34.67-38.56,12.82-9.33,25.64-11.21,42.17-11.21s29.35,1.87,42.17,11.21c10.5,7.64,19.6,19.28,34.67,38.56,6.55,8.38,14.71,18.81,24.61,30.99l.25.31,70.39,90.6h-45.39Z"/></svg>